<svg width="120" height="60" viewBox="0 0 120 60" fill="none" xmlns="http://www.w3.org/2000/svg">
<rect x="34.3606" y="39" width="15" height="5" transform="rotate(57.3517 34.3606 39)" fill="#FFA500"/>
<path fill-rule="evenodd" clip-rule="evenodd" d="M10 20.3868L26.6506 10.7735L43.3013 20.3868V39.6132L37.9228 42.7185L40.6231 46.933L48.3013 42.5V17.5L26.6506 5L5 17.5V42.5L26.6506 55L34.1209 50.687L31.4206 46.4725L26.6506 49.2265L10 39.6132V20.3868Z" fill="#FFA500"/>
<path fill-rule="evenodd" clip-rule="evenodd" d="M26.7757 14.7835L26.6507 14.7113L26.5257 14.7835L13.5353 22.2835L13.4103 22.3556V22.5V37.5V37.6443L13.5353 37.7165L26.5257 45.2165L26.7757 44.7835L13.9103 37.3556V22.6443L26.6507 15.2887L39.391 22.6443V37.5H39.891V22.5V22.3556L39.766 22.2835L26.7757 14.7835Z" fill="#757575"/>
<circle cx="26.9006" cy="45.25" r="1.825" fill="black" stroke="#757575" stroke-width="0.15"/>
<circle cx="13.9006" cy="22.75" r="1.825" fill="black" stroke="#757575" stroke-width="0.15"/>
<circle cx="39.4006" cy="22.75" r="1.825" fill="black" stroke="#757575" stroke-width="0.15"/>
<circle cx="39.4006" cy="37.25" r="1.75" fill="#FFA500"/>
<circle cx="26.9006" cy="15.25" r="1.75" fill="#FFA500"/>
<circle cx="13.9006" cy="37.25" r="1.75" fill="#FFA500"/>
<path d="M57.4753 17.8182H59.628V24.4304C59.628 25.1728 59.4507 25.8224 59.096 26.3793C58.7447 26.9361 58.2525 27.3703 57.6195 27.6818C56.9864 27.9901 56.2489 28.1442 55.4071 28.1442C54.5619 28.1442 53.8228 27.9901 53.1898 27.6818C52.5567 27.3703 52.0645 26.9361 51.7132 26.3793C51.3619 25.8224 51.1862 25.1728 51.1862 24.4304V17.8182H53.3389V24.2464C53.3389 24.6342 53.4234 24.9789 53.5925 25.2805C53.7648 25.5821 54.0068 25.8191 54.3183 25.9915C54.6299 26.1638 54.9928 26.25 55.4071 26.25C55.8247 26.25 56.1876 26.1638 56.4959 25.9915C56.8074 25.8191 57.0477 25.5821 57.2168 25.2805C57.3891 24.9789 57.4753 24.6342 57.4753 24.2464V17.8182ZM63.1541 28H60.8473L64.3622 17.8182H67.1363L70.6463 28H68.3394L65.789 20.1449H65.7095L63.1541 28ZM63.0099 23.9979H68.4588V25.6783H63.0099V23.9979ZM80.3881 17.8182V28H78.5287L74.099 21.5916H74.0245V28H71.8718V17.8182H73.761L78.1559 24.2216H78.2453V17.8182H80.3881ZM81.7789 19.593V17.8182H90.1411V19.593H87.0239V28H84.8961V19.593H81.7789ZM97.8073 17.8182H99.96V24.4304C99.96 25.1728 99.7827 25.8224 99.428 26.3793C99.0767 26.9361 98.5845 27.3703 97.9515 27.6818C97.3184 27.9901 96.581 28.1442 95.7391 28.1442C94.894 28.1442 94.1548 27.9901 93.5218 27.6818C92.8887 27.3703 92.3966 26.9361 92.0452 26.3793C91.6939 25.8224 91.5182 25.1728 91.5182 24.4304V17.8182H93.6709V24.2464C93.6709 24.6342 93.7555 24.9789 93.9245 25.2805C94.0968 25.5821 94.3388 25.8191 94.6503 25.9915C94.9619 26.1638 95.3248 26.25 95.7391 26.25C96.1567 26.25 96.5197 26.1638 96.8279 25.9915C97.1395 25.8191 97.3797 25.5821 97.5488 25.2805C97.7211 24.9789 97.8073 24.6342 97.8073 24.2464V17.8182ZM101.731 17.8182H104.386L107.19 24.6591H107.309L110.113 17.8182H112.768V28H110.68V21.3729H110.595L107.961 27.9503H106.539L103.904 21.348H103.819V28H101.731V17.8182Z" fill="#FFA500"/>
<path d="M51.1862 42V31.8182H57.9277V33.593H53.3389V36.0192H57.4802V37.794H53.3389V42H51.1862ZM61.5284 31.8182V42H59.3757V31.8182H61.5284ZM71.8158 31.8182V42H69.9565L65.5268 35.5916H65.4522V42H63.2995V31.8182H65.1887L69.5836 38.2216H69.6731V31.8182H71.8158ZM75.3494 42H73.0426L76.5575 31.8182H79.3316L82.8416 42H80.5348L77.9843 34.1449H77.9048L75.3494 42ZM75.2052 37.9979H80.6541V39.6783H75.2052V37.9979ZM92.5834 31.8182V42H90.724L86.2943 35.5916H86.2198V42H84.0671V31.8182H85.9563L90.3512 38.2216H90.4407V31.8182H92.5834ZM103.346 35.3828H101.168C101.128 35.1011 101.047 34.8509 100.924 34.6321C100.802 34.41 100.644 34.2211 100.452 34.0653C100.26 33.9096 100.038 33.7902 99.786 33.7074C99.5374 33.6245 99.2673 33.5831 98.9756 33.5831C98.4486 33.5831 97.9896 33.714 97.5985 33.9759C97.2074 34.2344 96.9041 34.6122 96.6887 35.1094C96.4733 35.6032 96.3655 36.2031 96.3655 36.9091C96.3655 37.6349 96.4733 38.2448 96.6887 38.7386C96.9074 39.2325 97.2124 39.6054 97.6035 39.8572C97.9946 40.1091 98.447 40.2351 98.9607 40.2351C99.2491 40.2351 99.5159 40.197 99.7611 40.1207C100.01 40.0445 100.23 39.9335 100.422 39.7876C100.615 39.6385 100.774 39.4579 100.9 39.2457C101.029 39.0336 101.118 38.7917 101.168 38.5199L103.346 38.5298C103.289 38.9972 103.148 39.4479 102.923 39.8821C102.701 40.313 102.401 40.6991 102.023 41.0405C101.649 41.3786 101.201 41.647 100.681 41.8459C100.164 42.0414 99.5789 42.1392 98.9259 42.1392C98.0178 42.1392 97.2057 41.9337 96.4898 41.5227C95.7772 41.1117 95.2138 40.5168 94.7995 39.7379C94.3885 38.959 94.183 38.0161 94.183 36.9091C94.183 35.7988 94.3918 34.8542 94.8094 34.0753C95.2271 33.2964 95.7938 32.7031 96.5097 32.2955C97.2256 31.8845 98.031 31.679 98.9259 31.679C99.5159 31.679 100.063 31.7618 100.567 31.9276C101.074 32.0933 101.523 32.3352 101.914 32.6534C102.305 32.9683 102.623 33.3544 102.868 33.8118C103.117 34.2692 103.276 34.7929 103.346 35.3828ZM104.889 42V31.8182H111.75V33.593H107.042V36.0192H111.397V37.794H107.042V40.2251H111.77V42H104.889Z" fill="white"/>
</svg>
